<mxfile host="app.diagrams.net" agent="Mozilla/5.0 (Windows NT 10.0; Win64; x64) AppleWebKit/537.36 (KHTML, like Gecko) Chrome/127.0.0.0 Safari/537.36" version="24.7.7" pages="2">
  <diagram name="Página-1" id="BYT3pglaiAQ-TZzWWh-H">
    <mxGraphModel dx="880" dy="1677" grid="1" gridSize="10" guides="1" tooltips="1" connect="1" arrows="1" fold="1" page="1" pageScale="1" pageWidth="827" pageHeight="1169" math="0" shadow="0">
      <root>
        <mxCell id="0" />
        <mxCell id="1" parent="0" />
        <mxCell id="GlYWj81vdLsw13kxkPKB-78" style="edgeStyle=orthogonalEdgeStyle;rounded=0;orthogonalLoop=1;jettySize=auto;html=1;" edge="1" parent="1" source="GlYWj81vdLsw13kxkPKB-3">
          <mxGeometry relative="1" as="geometry">
            <mxPoint x="610" y="410" as="targetPoint" />
          </mxGeometry>
        </mxCell>
        <mxCell id="GlYWj81vdLsw13kxkPKB-3" value="ID_Ejemplar" style="ellipse;whiteSpace=wrap;html=1;align=center;fontStyle=4;" vertex="1" parent="1">
          <mxGeometry x="560" y="350" width="100" height="40" as="geometry" />
        </mxCell>
        <mxCell id="GlYWj81vdLsw13kxkPKB-29" style="edgeStyle=orthogonalEdgeStyle;rounded=0;orthogonalLoop=1;jettySize=auto;html=1;" edge="1" parent="1" source="GlYWj81vdLsw13kxkPKB-4">
          <mxGeometry relative="1" as="geometry">
            <mxPoint x="120" y="-20" as="targetPoint" />
          </mxGeometry>
        </mxCell>
        <mxCell id="GlYWj81vdLsw13kxkPKB-4" value="ID_Sucursal" style="ellipse;whiteSpace=wrap;html=1;align=center;fontStyle=4;" vertex="1" parent="1">
          <mxGeometry x="70" width="100" height="40" as="geometry" />
        </mxCell>
        <mxCell id="GlYWj81vdLsw13kxkPKB-33" style="edgeStyle=orthogonalEdgeStyle;rounded=0;orthogonalLoop=1;jettySize=auto;html=1;entryX=0.5;entryY=0;entryDx=0;entryDy=0;" edge="1" parent="1" source="GlYWj81vdLsw13kxkPKB-5" target="GlYWj81vdLsw13kxkPKB-6">
          <mxGeometry relative="1" as="geometry" />
        </mxCell>
        <mxCell id="GlYWj81vdLsw13kxkPKB-5" value="ID_Sucursal" style="ellipse;whiteSpace=wrap;html=1;align=center;fontStyle=4;" vertex="1" parent="1">
          <mxGeometry x="70" y="240" width="100" height="40" as="geometry" />
        </mxCell>
        <mxCell id="GlYWj81vdLsw13kxkPKB-34" style="edgeStyle=orthogonalEdgeStyle;rounded=0;orthogonalLoop=1;jettySize=auto;html=1;entryX=0.5;entryY=0;entryDx=0;entryDy=0;" edge="1" parent="1" source="GlYWj81vdLsw13kxkPKB-6" target="GlYWj81vdLsw13kxkPKB-7">
          <mxGeometry relative="1" as="geometry" />
        </mxCell>
        <mxCell id="GlYWj81vdLsw13kxkPKB-6" value="NIF" style="ellipse;whiteSpace=wrap;html=1;align=center;" vertex="1" parent="1">
          <mxGeometry x="70" y="300" width="100" height="40" as="geometry" />
        </mxCell>
        <mxCell id="GlYWj81vdLsw13kxkPKB-35" style="edgeStyle=orthogonalEdgeStyle;rounded=0;orthogonalLoop=1;jettySize=auto;html=1;" edge="1" parent="1" source="GlYWj81vdLsw13kxkPKB-7">
          <mxGeometry relative="1" as="geometry">
            <mxPoint x="120" y="420" as="targetPoint" />
          </mxGeometry>
        </mxCell>
        <mxCell id="GlYWj81vdLsw13kxkPKB-7" value="Nombre" style="ellipse;whiteSpace=wrap;html=1;align=center;" vertex="1" parent="1">
          <mxGeometry x="70" y="360" width="100" height="40" as="geometry" />
        </mxCell>
        <mxCell id="GlYWj81vdLsw13kxkPKB-38" style="edgeStyle=orthogonalEdgeStyle;rounded=0;orthogonalLoop=1;jettySize=auto;html=1;" edge="1" parent="1" source="GlYWj81vdLsw13kxkPKB-8">
          <mxGeometry relative="1" as="geometry">
            <mxPoint x="120" y="480" as="targetPoint" />
          </mxGeometry>
        </mxCell>
        <mxCell id="GlYWj81vdLsw13kxkPKB-8" value="Apellidos" style="ellipse;whiteSpace=wrap;html=1;align=center;" vertex="1" parent="1">
          <mxGeometry x="70" y="420" width="100" height="40" as="geometry" />
        </mxCell>
        <mxCell id="GlYWj81vdLsw13kxkPKB-9" value="Escribir" style="shape=rhombus;perimeter=rhombusPerimeter;whiteSpace=wrap;html=1;align=center;" vertex="1" parent="1">
          <mxGeometry x="460" y="170" width="70" height="42.5" as="geometry" />
        </mxCell>
        <mxCell id="GlYWj81vdLsw13kxkPKB-10" value="Publica" style="shape=rhombus;perimeter=rhombusPerimeter;whiteSpace=wrap;html=1;align=center;rotation=30;" vertex="1" parent="1">
          <mxGeometry x="220" y="100" width="70" height="62.5" as="geometry" />
        </mxCell>
        <mxCell id="GlYWj81vdLsw13kxkPKB-24" style="edgeStyle=orthogonalEdgeStyle;rounded=0;orthogonalLoop=1;jettySize=auto;html=1;entryX=0.5;entryY=0;entryDx=0;entryDy=0;" edge="1" parent="1" source="GlYWj81vdLsw13kxkPKB-13" target="GlYWj81vdLsw13kxkPKB-14">
          <mxGeometry relative="1" as="geometry" />
        </mxCell>
        <mxCell id="GlYWj81vdLsw13kxkPKB-26" style="edgeStyle=orthogonalEdgeStyle;rounded=0;orthogonalLoop=1;jettySize=auto;html=1;entryX=0.5;entryY=1;entryDx=0;entryDy=0;" edge="1" parent="1" source="GlYWj81vdLsw13kxkPKB-13" target="GlYWj81vdLsw13kxkPKB-4">
          <mxGeometry relative="1" as="geometry" />
        </mxCell>
        <mxCell id="GlYWj81vdLsw13kxkPKB-55" style="edgeStyle=orthogonalEdgeStyle;rounded=0;orthogonalLoop=1;jettySize=auto;html=1;entryX=0;entryY=0;entryDx=0;entryDy=0;" edge="1" parent="1" source="GlYWj81vdLsw13kxkPKB-13" target="GlYWj81vdLsw13kxkPKB-10">
          <mxGeometry relative="1" as="geometry">
            <Array as="points">
              <mxPoint x="248" y="100" />
            </Array>
          </mxGeometry>
        </mxCell>
        <mxCell id="GlYWj81vdLsw13kxkPKB-13" value="Sucursal" style="whiteSpace=wrap;html=1;align=center;" vertex="1" parent="1">
          <mxGeometry x="70" y="80" width="100" height="40" as="geometry" />
        </mxCell>
        <mxCell id="GlYWj81vdLsw13kxkPKB-32" style="edgeStyle=orthogonalEdgeStyle;rounded=0;orthogonalLoop=1;jettySize=auto;html=1;entryX=0.5;entryY=0;entryDx=0;entryDy=0;" edge="1" parent="1" source="GlYWj81vdLsw13kxkPKB-14" target="GlYWj81vdLsw13kxkPKB-5">
          <mxGeometry relative="1" as="geometry" />
        </mxCell>
        <mxCell id="GlYWj81vdLsw13kxkPKB-14" value="Empleado" style="whiteSpace=wrap;html=1;align=center;" vertex="1" parent="1">
          <mxGeometry x="70" y="170" width="100" height="40" as="geometry" />
        </mxCell>
        <mxCell id="GlYWj81vdLsw13kxkPKB-77" style="edgeStyle=orthogonalEdgeStyle;rounded=0;orthogonalLoop=1;jettySize=auto;html=1;entryX=0.5;entryY=0;entryDx=0;entryDy=0;" edge="1" parent="1" source="GlYWj81vdLsw13kxkPKB-15" target="GlYWj81vdLsw13kxkPKB-3">
          <mxGeometry relative="1" as="geometry" />
        </mxCell>
        <mxCell id="GlYWj81vdLsw13kxkPKB-15" value="Ejemplar" style="whiteSpace=wrap;html=1;align=center;" vertex="1" parent="1">
          <mxGeometry x="560" y="290" width="100" height="40" as="geometry" />
        </mxCell>
        <mxCell id="GlYWj81vdLsw13kxkPKB-57" style="edgeStyle=orthogonalEdgeStyle;rounded=0;orthogonalLoop=1;jettySize=auto;html=1;entryX=1;entryY=0.5;entryDx=0;entryDy=0;" edge="1" parent="1" source="GlYWj81vdLsw13kxkPKB-16" target="GlYWj81vdLsw13kxkPKB-9">
          <mxGeometry relative="1" as="geometry" />
        </mxCell>
        <mxCell id="GlYWj81vdLsw13kxkPKB-84" style="edgeStyle=orthogonalEdgeStyle;rounded=0;orthogonalLoop=1;jettySize=auto;html=1;" edge="1" parent="1" source="GlYWj81vdLsw13kxkPKB-16">
          <mxGeometry relative="1" as="geometry">
            <mxPoint x="610" y="150" as="targetPoint" />
          </mxGeometry>
        </mxCell>
        <mxCell id="GlYWj81vdLsw13kxkPKB-16" value="Periodista" style="whiteSpace=wrap;html=1;align=center;" vertex="1" parent="1">
          <mxGeometry x="560" y="170" width="100" height="40" as="geometry" />
        </mxCell>
        <mxCell id="GlYWj81vdLsw13kxkPKB-56" style="edgeStyle=orthogonalEdgeStyle;rounded=0;orthogonalLoop=1;jettySize=auto;html=1;entryX=1;entryY=1;entryDx=0;entryDy=0;" edge="1" parent="1" source="GlYWj81vdLsw13kxkPKB-17" target="GlYWj81vdLsw13kxkPKB-10">
          <mxGeometry relative="1" as="geometry">
            <Array as="points">
              <mxPoint x="270" y="188" />
              <mxPoint x="270" y="154" />
            </Array>
          </mxGeometry>
        </mxCell>
        <mxCell id="GlYWj81vdLsw13kxkPKB-59" style="edgeStyle=orthogonalEdgeStyle;rounded=0;orthogonalLoop=1;jettySize=auto;html=1;entryX=0;entryY=0.5;entryDx=0;entryDy=0;" edge="1" parent="1" source="GlYWj81vdLsw13kxkPKB-17" target="GlYWj81vdLsw13kxkPKB-9">
          <mxGeometry relative="1" as="geometry">
            <Array as="points">
              <mxPoint x="440" y="188" />
              <mxPoint x="440" y="191" />
            </Array>
          </mxGeometry>
        </mxCell>
        <mxCell id="GlYWj81vdLsw13kxkPKB-60" style="edgeStyle=orthogonalEdgeStyle;rounded=0;orthogonalLoop=1;jettySize=auto;html=1;" edge="1" parent="1" source="GlYWj81vdLsw13kxkPKB-17">
          <mxGeometry relative="1" as="geometry">
            <mxPoint x="368" y="110" as="targetPoint" />
          </mxGeometry>
        </mxCell>
        <mxCell id="GlYWj81vdLsw13kxkPKB-17" value="Revista" style="whiteSpace=wrap;html=1;align=center;" vertex="1" parent="1">
          <mxGeometry x="315" y="165" width="105" height="45" as="geometry" />
        </mxCell>
        <mxCell id="GlYWj81vdLsw13kxkPKB-65" style="edgeStyle=orthogonalEdgeStyle;rounded=0;orthogonalLoop=1;jettySize=auto;html=1;" edge="1" parent="1" source="GlYWj81vdLsw13kxkPKB-18">
          <mxGeometry relative="1" as="geometry">
            <mxPoint x="367.5" y="20" as="targetPoint" />
          </mxGeometry>
        </mxCell>
        <mxCell id="GlYWj81vdLsw13kxkPKB-18" value="Sección" style="whiteSpace=wrap;html=1;align=center;" vertex="1" parent="1">
          <mxGeometry x="317.5" y="70" width="100" height="40" as="geometry" />
        </mxCell>
        <mxCell id="GlYWj81vdLsw13kxkPKB-31" style="edgeStyle=orthogonalEdgeStyle;rounded=0;orthogonalLoop=1;jettySize=auto;html=1;" edge="1" parent="1" source="GlYWj81vdLsw13kxkPKB-27">
          <mxGeometry relative="1" as="geometry">
            <mxPoint x="120" y="-80" as="targetPoint" />
          </mxGeometry>
        </mxCell>
        <mxCell id="GlYWj81vdLsw13kxkPKB-27" value="Domicilio" style="ellipse;whiteSpace=wrap;html=1;align=center;" vertex="1" parent="1">
          <mxGeometry x="70" y="-60" width="100" height="40" as="geometry" />
        </mxCell>
        <mxCell id="GlYWj81vdLsw13kxkPKB-28" value="Teléfono" style="ellipse;whiteSpace=wrap;html=1;align=center;" vertex="1" parent="1">
          <mxGeometry x="70" y="-120" width="100" height="40" as="geometry" />
        </mxCell>
        <mxCell id="GlYWj81vdLsw13kxkPKB-44" style="edgeStyle=orthogonalEdgeStyle;rounded=0;orthogonalLoop=1;jettySize=auto;html=1;" edge="1" parent="1" source="GlYWj81vdLsw13kxkPKB-36">
          <mxGeometry relative="1" as="geometry">
            <mxPoint x="370" y="270" as="targetPoint" />
          </mxGeometry>
        </mxCell>
        <mxCell id="GlYWj81vdLsw13kxkPKB-36" value="ID_Revista" style="ellipse;whiteSpace=wrap;html=1;align=center;fontStyle=4;" vertex="1" parent="1">
          <mxGeometry x="320" y="220" width="100" height="30" as="geometry" />
        </mxCell>
        <mxCell id="GlYWj81vdLsw13kxkPKB-37" value="Teléfono" style="ellipse;whiteSpace=wrap;html=1;align=center;" vertex="1" parent="1">
          <mxGeometry x="70" y="480" width="100" height="40" as="geometry" />
        </mxCell>
        <mxCell id="GlYWj81vdLsw13kxkPKB-45" style="edgeStyle=orthogonalEdgeStyle;rounded=0;orthogonalLoop=1;jettySize=auto;html=1;" edge="1" parent="1" source="GlYWj81vdLsw13kxkPKB-39">
          <mxGeometry relative="1" as="geometry">
            <mxPoint x="370" y="320" as="targetPoint" />
          </mxGeometry>
        </mxCell>
        <mxCell id="GlYWj81vdLsw13kxkPKB-39" value="Título" style="ellipse;whiteSpace=wrap;html=1;align=center;" vertex="1" parent="1">
          <mxGeometry x="325" y="270" width="90" height="30" as="geometry" />
        </mxCell>
        <mxCell id="GlYWj81vdLsw13kxkPKB-46" style="edgeStyle=orthogonalEdgeStyle;rounded=0;orthogonalLoop=1;jettySize=auto;html=1;" edge="1" parent="1" source="GlYWj81vdLsw13kxkPKB-40">
          <mxGeometry relative="1" as="geometry">
            <mxPoint x="370" y="380" as="targetPoint" />
          </mxGeometry>
        </mxCell>
        <mxCell id="GlYWj81vdLsw13kxkPKB-40" value="Número_registro" style="ellipse;whiteSpace=wrap;html=1;align=center;" vertex="1" parent="1">
          <mxGeometry x="320" y="320" width="100" height="40" as="geometry" />
        </mxCell>
        <mxCell id="GlYWj81vdLsw13kxkPKB-49" style="edgeStyle=orthogonalEdgeStyle;rounded=0;orthogonalLoop=1;jettySize=auto;html=1;" edge="1" parent="1" source="GlYWj81vdLsw13kxkPKB-41">
          <mxGeometry relative="1" as="geometry">
            <mxPoint x="370" y="440" as="targetPoint" />
          </mxGeometry>
        </mxCell>
        <mxCell id="GlYWj81vdLsw13kxkPKB-41" value="Periodicidad" style="ellipse;whiteSpace=wrap;html=1;align=center;" vertex="1" parent="1">
          <mxGeometry x="320" y="380" width="100" height="40" as="geometry" />
        </mxCell>
        <mxCell id="GlYWj81vdLsw13kxkPKB-42" value="Tipo" style="ellipse;whiteSpace=wrap;html=1;align=center;" vertex="1" parent="1">
          <mxGeometry x="330" y="440" width="85" height="30" as="geometry" />
        </mxCell>
        <mxCell id="GlYWj81vdLsw13kxkPKB-89" style="edgeStyle=orthogonalEdgeStyle;rounded=0;orthogonalLoop=1;jettySize=auto;html=1;" edge="1" parent="1" source="GlYWj81vdLsw13kxkPKB-50">
          <mxGeometry relative="1" as="geometry">
            <mxPoint x="610" y="40" as="targetPoint" />
          </mxGeometry>
        </mxCell>
        <mxCell id="GlYWj81vdLsw13kxkPKB-50" value="Nombre" style="ellipse;whiteSpace=wrap;html=1;align=center;" vertex="1" parent="1">
          <mxGeometry x="560" y="60" width="100" height="40" as="geometry" />
        </mxCell>
        <mxCell id="GlYWj81vdLsw13kxkPKB-87" style="edgeStyle=orthogonalEdgeStyle;rounded=0;orthogonalLoop=1;jettySize=auto;html=1;" edge="1" parent="1" source="GlYWj81vdLsw13kxkPKB-51">
          <mxGeometry relative="1" as="geometry">
            <mxPoint x="610" y="100" as="targetPoint" />
          </mxGeometry>
        </mxCell>
        <mxCell id="GlYWj81vdLsw13kxkPKB-51" value="NIF" style="ellipse;whiteSpace=wrap;html=1;align=center;fontStyle=4;" vertex="1" parent="1">
          <mxGeometry x="560" y="120" width="100" height="30" as="geometry" />
        </mxCell>
        <mxCell id="GlYWj81vdLsw13kxkPKB-90" style="edgeStyle=orthogonalEdgeStyle;rounded=0;orthogonalLoop=1;jettySize=auto;html=1;" edge="1" parent="1" source="GlYWj81vdLsw13kxkPKB-52">
          <mxGeometry relative="1" as="geometry">
            <mxPoint x="610" y="-20" as="targetPoint" />
          </mxGeometry>
        </mxCell>
        <mxCell id="GlYWj81vdLsw13kxkPKB-52" value="Apellidos" style="ellipse;whiteSpace=wrap;html=1;align=center;" vertex="1" parent="1">
          <mxGeometry x="560" width="100" height="40" as="geometry" />
        </mxCell>
        <mxCell id="GlYWj81vdLsw13kxkPKB-91" style="edgeStyle=orthogonalEdgeStyle;rounded=0;orthogonalLoop=1;jettySize=auto;html=1;" edge="1" parent="1" source="GlYWj81vdLsw13kxkPKB-53">
          <mxGeometry relative="1" as="geometry">
            <mxPoint x="610" y="-80" as="targetPoint" />
          </mxGeometry>
        </mxCell>
        <mxCell id="GlYWj81vdLsw13kxkPKB-53" value="Teléfono" style="ellipse;whiteSpace=wrap;html=1;align=center;" vertex="1" parent="1">
          <mxGeometry x="560" y="-60" width="100" height="40" as="geometry" />
        </mxCell>
        <mxCell id="GlYWj81vdLsw13kxkPKB-54" value="Especialidad" style="ellipse;whiteSpace=wrap;html=1;align=center;" vertex="1" parent="1">
          <mxGeometry x="560" y="-120" width="100" height="40" as="geometry" />
        </mxCell>
        <mxCell id="GlYWj81vdLsw13kxkPKB-61" value="ID_Sección" style="ellipse;whiteSpace=wrap;html=1;align=center;fontStyle=4;" vertex="1" parent="1">
          <mxGeometry x="320" y="10" width="100" height="40" as="geometry" />
        </mxCell>
        <mxCell id="GlYWj81vdLsw13kxkPKB-63" value="Extensión" style="ellipse;whiteSpace=wrap;html=1;align=center;" vertex="1" parent="1">
          <mxGeometry x="320" y="-100" width="100" height="40" as="geometry" />
        </mxCell>
        <mxCell id="GlYWj81vdLsw13kxkPKB-72" style="edgeStyle=orthogonalEdgeStyle;rounded=0;orthogonalLoop=1;jettySize=auto;html=1;" edge="1" parent="1" source="GlYWj81vdLsw13kxkPKB-62">
          <mxGeometry relative="1" as="geometry">
            <mxPoint x="370" y="-60" as="targetPoint" />
          </mxGeometry>
        </mxCell>
        <mxCell id="GlYWj81vdLsw13kxkPKB-62" value="Título" style="ellipse;whiteSpace=wrap;html=1;align=center;" vertex="1" parent="1">
          <mxGeometry x="320" y="-40" width="100" height="40" as="geometry" />
        </mxCell>
        <mxCell id="GlYWj81vdLsw13kxkPKB-79" style="edgeStyle=orthogonalEdgeStyle;rounded=0;orthogonalLoop=1;jettySize=auto;html=1;" edge="1" parent="1" source="GlYWj81vdLsw13kxkPKB-73">
          <mxGeometry relative="1" as="geometry">
            <mxPoint x="610" y="470" as="targetPoint" />
          </mxGeometry>
        </mxCell>
        <mxCell id="GlYWj81vdLsw13kxkPKB-73" value="ID_Revista" style="ellipse;whiteSpace=wrap;html=1;align=center;" vertex="1" parent="1">
          <mxGeometry x="560" y="410" width="100" height="40" as="geometry" />
        </mxCell>
        <mxCell id="GlYWj81vdLsw13kxkPKB-81" style="edgeStyle=orthogonalEdgeStyle;rounded=0;orthogonalLoop=1;jettySize=auto;html=1;entryX=0.5;entryY=0;entryDx=0;entryDy=0;" edge="1" parent="1" source="GlYWj81vdLsw13kxkPKB-74" target="GlYWj81vdLsw13kxkPKB-75">
          <mxGeometry relative="1" as="geometry" />
        </mxCell>
        <mxCell id="GlYWj81vdLsw13kxkPKB-74" value="Fecha" style="ellipse;whiteSpace=wrap;html=1;align=center;" vertex="1" parent="1">
          <mxGeometry x="560" y="470" width="100" height="30" as="geometry" />
        </mxCell>
        <mxCell id="GlYWj81vdLsw13kxkPKB-82" style="edgeStyle=orthogonalEdgeStyle;rounded=0;orthogonalLoop=1;jettySize=auto;html=1;" edge="1" parent="1" source="GlYWj81vdLsw13kxkPKB-75">
          <mxGeometry relative="1" as="geometry">
            <mxPoint x="610" y="590" as="targetPoint" />
          </mxGeometry>
        </mxCell>
        <mxCell id="GlYWj81vdLsw13kxkPKB-75" value="Número_Páginas" style="ellipse;whiteSpace=wrap;html=1;align=center;" vertex="1" parent="1">
          <mxGeometry x="560" y="530" width="100" height="40" as="geometry" />
        </mxCell>
        <mxCell id="GlYWj81vdLsw13kxkPKB-76" value="Numeros_Vendidos" style="ellipse;whiteSpace=wrap;html=1;align=center;" vertex="1" parent="1">
          <mxGeometry x="560" y="590" width="100" height="40" as="geometry" />
        </mxCell>
      </root>
    </mxGraphModel>
  </diagram>
  <diagram name="Copia de Página-1" id="pAmWwcX08AOS-42bta6G">
    <mxGraphModel dx="880" dy="1677" grid="1" gridSize="10" guides="1" tooltips="1" connect="1" arrows="1" fold="1" page="1" pageScale="1" pageWidth="827" pageHeight="1169" math="0" shadow="0">
      <root>
        <mxCell id="MCzjkDJWGuXhaZzOaiWx-0" />
        <mxCell id="MCzjkDJWGuXhaZzOaiWx-1" parent="MCzjkDJWGuXhaZzOaiWx-0" />
        <mxCell id="MCzjkDJWGuXhaZzOaiWx-2" style="edgeStyle=orthogonalEdgeStyle;rounded=0;orthogonalLoop=1;jettySize=auto;html=1;" edge="1" parent="MCzjkDJWGuXhaZzOaiWx-1" source="MCzjkDJWGuXhaZzOaiWx-3">
          <mxGeometry relative="1" as="geometry">
            <mxPoint x="610" y="410" as="targetPoint" />
          </mxGeometry>
        </mxCell>
        <mxCell id="MCzjkDJWGuXhaZzOaiWx-3" value="ID_Componente" style="ellipse;whiteSpace=wrap;html=1;align=center;fontStyle=4;" vertex="1" parent="MCzjkDJWGuXhaZzOaiWx-1">
          <mxGeometry x="560" y="350" width="100" height="40" as="geometry" />
        </mxCell>
        <mxCell id="MCzjkDJWGuXhaZzOaiWx-4" style="edgeStyle=orthogonalEdgeStyle;rounded=0;orthogonalLoop=1;jettySize=auto;html=1;" edge="1" parent="MCzjkDJWGuXhaZzOaiWx-1" source="MCzjkDJWGuXhaZzOaiWx-5">
          <mxGeometry relative="1" as="geometry">
            <mxPoint x="120" y="-20" as="targetPoint" />
          </mxGeometry>
        </mxCell>
        <mxCell id="MCzjkDJWGuXhaZzOaiWx-5" value="NIF" style="ellipse;whiteSpace=wrap;html=1;align=center;fontStyle=4;" vertex="1" parent="MCzjkDJWGuXhaZzOaiWx-1">
          <mxGeometry x="70" width="100" height="40" as="geometry" />
        </mxCell>
        <mxCell id="MCzjkDJWGuXhaZzOaiWx-6" style="edgeStyle=orthogonalEdgeStyle;rounded=0;orthogonalLoop=1;jettySize=auto;html=1;entryX=0.5;entryY=0;entryDx=0;entryDy=0;" edge="1" parent="MCzjkDJWGuXhaZzOaiWx-1" source="MCzjkDJWGuXhaZzOaiWx-7">
          <mxGeometry relative="1" as="geometry">
            <mxPoint x="120" y="300" as="targetPoint" />
          </mxGeometry>
        </mxCell>
        <mxCell id="MCzjkDJWGuXhaZzOaiWx-7" value="NIF" style="ellipse;whiteSpace=wrap;html=1;align=center;fontStyle=4;" vertex="1" parent="MCzjkDJWGuXhaZzOaiWx-1">
          <mxGeometry x="70" y="240" width="100" height="40" as="geometry" />
        </mxCell>
        <mxCell id="ZtLOuPHvxNb80hMJllQL-15" style="edgeStyle=orthogonalEdgeStyle;rounded=0;orthogonalLoop=1;jettySize=auto;html=1;" edge="1" parent="MCzjkDJWGuXhaZzOaiWx-1" source="MCzjkDJWGuXhaZzOaiWx-11">
          <mxGeometry relative="1" as="geometry">
            <mxPoint x="120" y="420" as="targetPoint" />
          </mxGeometry>
        </mxCell>
        <mxCell id="MCzjkDJWGuXhaZzOaiWx-11" value="Nombre" style="ellipse;whiteSpace=wrap;html=1;align=center;" vertex="1" parent="MCzjkDJWGuXhaZzOaiWx-1">
          <mxGeometry x="70" y="360" width="100" height="40" as="geometry" />
        </mxCell>
        <mxCell id="MCzjkDJWGuXhaZzOaiWx-13" value="Apellidos" style="ellipse;whiteSpace=wrap;html=1;align=center;" vertex="1" parent="MCzjkDJWGuXhaZzOaiWx-1">
          <mxGeometry x="70" y="420" width="100" height="40" as="geometry" />
        </mxCell>
        <mxCell id="MCzjkDJWGuXhaZzOaiWx-14" value="Escribir" style="shape=rhombus;perimeter=rhombusPerimeter;whiteSpace=wrap;html=1;align=center;" vertex="1" parent="MCzjkDJWGuXhaZzOaiWx-1">
          <mxGeometry x="460" y="170" width="70" height="42.5" as="geometry" />
        </mxCell>
        <mxCell id="MCzjkDJWGuXhaZzOaiWx-15" value="Publica" style="shape=rhombus;perimeter=rhombusPerimeter;whiteSpace=wrap;html=1;align=center;rotation=30;" vertex="1" parent="MCzjkDJWGuXhaZzOaiWx-1">
          <mxGeometry x="220" y="100" width="70" height="62.5" as="geometry" />
        </mxCell>
        <mxCell id="MCzjkDJWGuXhaZzOaiWx-16" style="edgeStyle=orthogonalEdgeStyle;rounded=0;orthogonalLoop=1;jettySize=auto;html=1;entryX=0.5;entryY=0;entryDx=0;entryDy=0;" edge="1" parent="MCzjkDJWGuXhaZzOaiWx-1" source="MCzjkDJWGuXhaZzOaiWx-19" target="MCzjkDJWGuXhaZzOaiWx-21">
          <mxGeometry relative="1" as="geometry" />
        </mxCell>
        <mxCell id="MCzjkDJWGuXhaZzOaiWx-17" style="edgeStyle=orthogonalEdgeStyle;rounded=0;orthogonalLoop=1;jettySize=auto;html=1;entryX=0.5;entryY=1;entryDx=0;entryDy=0;" edge="1" parent="MCzjkDJWGuXhaZzOaiWx-1" source="MCzjkDJWGuXhaZzOaiWx-19" target="MCzjkDJWGuXhaZzOaiWx-5">
          <mxGeometry relative="1" as="geometry" />
        </mxCell>
        <mxCell id="MCzjkDJWGuXhaZzOaiWx-18" style="edgeStyle=orthogonalEdgeStyle;rounded=0;orthogonalLoop=1;jettySize=auto;html=1;entryX=0;entryY=0;entryDx=0;entryDy=0;" edge="1" parent="MCzjkDJWGuXhaZzOaiWx-1" source="MCzjkDJWGuXhaZzOaiWx-19" target="MCzjkDJWGuXhaZzOaiWx-15">
          <mxGeometry relative="1" as="geometry">
            <Array as="points">
              <mxPoint x="248" y="100" />
            </Array>
          </mxGeometry>
        </mxCell>
        <mxCell id="MCzjkDJWGuXhaZzOaiWx-19" value="Clientes" style="whiteSpace=wrap;html=1;align=center;" vertex="1" parent="MCzjkDJWGuXhaZzOaiWx-1">
          <mxGeometry x="70" y="80" width="100" height="40" as="geometry" />
        </mxCell>
        <mxCell id="MCzjkDJWGuXhaZzOaiWx-20" style="edgeStyle=orthogonalEdgeStyle;rounded=0;orthogonalLoop=1;jettySize=auto;html=1;entryX=0.5;entryY=0;entryDx=0;entryDy=0;" edge="1" parent="MCzjkDJWGuXhaZzOaiWx-1" source="MCzjkDJWGuXhaZzOaiWx-21" target="MCzjkDJWGuXhaZzOaiWx-7">
          <mxGeometry relative="1" as="geometry" />
        </mxCell>
        <mxCell id="MCzjkDJWGuXhaZzOaiWx-21" value="Empleado" style="whiteSpace=wrap;html=1;align=center;" vertex="1" parent="MCzjkDJWGuXhaZzOaiWx-1">
          <mxGeometry x="70" y="170" width="100" height="40" as="geometry" />
        </mxCell>
        <mxCell id="MCzjkDJWGuXhaZzOaiWx-22" style="edgeStyle=orthogonalEdgeStyle;rounded=0;orthogonalLoop=1;jettySize=auto;html=1;entryX=0.5;entryY=0;entryDx=0;entryDy=0;" edge="1" parent="MCzjkDJWGuXhaZzOaiWx-1" source="MCzjkDJWGuXhaZzOaiWx-23" target="MCzjkDJWGuXhaZzOaiWx-3">
          <mxGeometry relative="1" as="geometry" />
        </mxCell>
        <mxCell id="MCzjkDJWGuXhaZzOaiWx-23" value="Componente" style="whiteSpace=wrap;html=1;align=center;" vertex="1" parent="MCzjkDJWGuXhaZzOaiWx-1">
          <mxGeometry x="560" y="290" width="100" height="40" as="geometry" />
        </mxCell>
        <mxCell id="MCzjkDJWGuXhaZzOaiWx-24" style="edgeStyle=orthogonalEdgeStyle;rounded=0;orthogonalLoop=1;jettySize=auto;html=1;entryX=1;entryY=0.5;entryDx=0;entryDy=0;" edge="1" parent="MCzjkDJWGuXhaZzOaiWx-1" source="MCzjkDJWGuXhaZzOaiWx-26" target="MCzjkDJWGuXhaZzOaiWx-14">
          <mxGeometry relative="1" as="geometry" />
        </mxCell>
        <mxCell id="MCzjkDJWGuXhaZzOaiWx-25" style="edgeStyle=orthogonalEdgeStyle;rounded=0;orthogonalLoop=1;jettySize=auto;html=1;" edge="1" parent="MCzjkDJWGuXhaZzOaiWx-1" source="MCzjkDJWGuXhaZzOaiWx-26">
          <mxGeometry relative="1" as="geometry">
            <mxPoint x="610" y="150" as="targetPoint" />
          </mxGeometry>
        </mxCell>
        <mxCell id="ZtLOuPHvxNb80hMJllQL-19" style="edgeStyle=orthogonalEdgeStyle;rounded=0;orthogonalLoop=1;jettySize=auto;html=1;" edge="1" parent="MCzjkDJWGuXhaZzOaiWx-1" source="MCzjkDJWGuXhaZzOaiWx-26">
          <mxGeometry relative="1" as="geometry">
            <mxPoint x="610" y="230" as="targetPoint" />
          </mxGeometry>
        </mxCell>
        <mxCell id="MCzjkDJWGuXhaZzOaiWx-26" value="Venta" style="whiteSpace=wrap;html=1;align=center;" vertex="1" parent="MCzjkDJWGuXhaZzOaiWx-1">
          <mxGeometry x="560" y="170" width="100" height="40" as="geometry" />
        </mxCell>
        <mxCell id="MCzjkDJWGuXhaZzOaiWx-27" style="edgeStyle=orthogonalEdgeStyle;rounded=0;orthogonalLoop=1;jettySize=auto;html=1;entryX=1;entryY=1;entryDx=0;entryDy=0;" edge="1" parent="MCzjkDJWGuXhaZzOaiWx-1" source="MCzjkDJWGuXhaZzOaiWx-30" target="MCzjkDJWGuXhaZzOaiWx-15">
          <mxGeometry relative="1" as="geometry">
            <Array as="points">
              <mxPoint x="270" y="188" />
              <mxPoint x="270" y="154" />
            </Array>
          </mxGeometry>
        </mxCell>
        <mxCell id="MCzjkDJWGuXhaZzOaiWx-28" style="edgeStyle=orthogonalEdgeStyle;rounded=0;orthogonalLoop=1;jettySize=auto;html=1;entryX=0;entryY=0.5;entryDx=0;entryDy=0;" edge="1" parent="MCzjkDJWGuXhaZzOaiWx-1" source="MCzjkDJWGuXhaZzOaiWx-30" target="MCzjkDJWGuXhaZzOaiWx-14">
          <mxGeometry relative="1" as="geometry">
            <Array as="points">
              <mxPoint x="440" y="188" />
              <mxPoint x="440" y="191" />
            </Array>
          </mxGeometry>
        </mxCell>
        <mxCell id="MCzjkDJWGuXhaZzOaiWx-29" style="edgeStyle=orthogonalEdgeStyle;rounded=0;orthogonalLoop=1;jettySize=auto;html=1;" edge="1" parent="MCzjkDJWGuXhaZzOaiWx-1" source="MCzjkDJWGuXhaZzOaiWx-30">
          <mxGeometry relative="1" as="geometry">
            <mxPoint x="368" y="110" as="targetPoint" />
          </mxGeometry>
        </mxCell>
        <mxCell id="MCzjkDJWGuXhaZzOaiWx-30" value="Equipo" style="whiteSpace=wrap;html=1;align=center;" vertex="1" parent="MCzjkDJWGuXhaZzOaiWx-1">
          <mxGeometry x="315" y="165" width="105" height="45" as="geometry" />
        </mxCell>
        <mxCell id="MCzjkDJWGuXhaZzOaiWx-31" style="edgeStyle=orthogonalEdgeStyle;rounded=0;orthogonalLoop=1;jettySize=auto;html=1;" edge="1" parent="MCzjkDJWGuXhaZzOaiWx-1" source="MCzjkDJWGuXhaZzOaiWx-32">
          <mxGeometry relative="1" as="geometry">
            <mxPoint x="367.5" y="20" as="targetPoint" />
          </mxGeometry>
        </mxCell>
        <mxCell id="MCzjkDJWGuXhaZzOaiWx-32" value="Sección" style="whiteSpace=wrap;html=1;align=center;" vertex="1" parent="MCzjkDJWGuXhaZzOaiWx-1">
          <mxGeometry x="317.5" y="70" width="100" height="40" as="geometry" />
        </mxCell>
        <mxCell id="MCzjkDJWGuXhaZzOaiWx-33" style="edgeStyle=orthogonalEdgeStyle;rounded=0;orthogonalLoop=1;jettySize=auto;html=1;" edge="1" parent="MCzjkDJWGuXhaZzOaiWx-1" source="MCzjkDJWGuXhaZzOaiWx-34">
          <mxGeometry relative="1" as="geometry">
            <mxPoint x="120" y="-80" as="targetPoint" />
          </mxGeometry>
        </mxCell>
        <mxCell id="MCzjkDJWGuXhaZzOaiWx-34" value="Nombre" style="ellipse;whiteSpace=wrap;html=1;align=center;" vertex="1" parent="MCzjkDJWGuXhaZzOaiWx-1">
          <mxGeometry x="70" y="-60" width="100" height="40" as="geometry" />
        </mxCell>
        <mxCell id="ZtLOuPHvxNb80hMJllQL-6" style="edgeStyle=orthogonalEdgeStyle;rounded=0;orthogonalLoop=1;jettySize=auto;html=1;" edge="1" parent="MCzjkDJWGuXhaZzOaiWx-1" source="MCzjkDJWGuXhaZzOaiWx-35">
          <mxGeometry relative="1" as="geometry">
            <mxPoint x="120" y="-140" as="targetPoint" />
          </mxGeometry>
        </mxCell>
        <mxCell id="MCzjkDJWGuXhaZzOaiWx-35" value="Apellidos" style="ellipse;whiteSpace=wrap;html=1;align=center;" vertex="1" parent="MCzjkDJWGuXhaZzOaiWx-1">
          <mxGeometry x="70" y="-120" width="100" height="40" as="geometry" />
        </mxCell>
        <mxCell id="MCzjkDJWGuXhaZzOaiWx-36" style="edgeStyle=orthogonalEdgeStyle;rounded=0;orthogonalLoop=1;jettySize=auto;html=1;" edge="1" parent="MCzjkDJWGuXhaZzOaiWx-1" source="MCzjkDJWGuXhaZzOaiWx-37">
          <mxGeometry relative="1" as="geometry">
            <mxPoint x="370" y="270" as="targetPoint" />
          </mxGeometry>
        </mxCell>
        <mxCell id="MCzjkDJWGuXhaZzOaiWx-37" value="ID_Equipo" style="ellipse;whiteSpace=wrap;html=1;align=center;fontStyle=4;" vertex="1" parent="MCzjkDJWGuXhaZzOaiWx-1">
          <mxGeometry x="320" y="220" width="100" height="30" as="geometry" />
        </mxCell>
        <mxCell id="ZtLOuPHvxNb80hMJllQL-14" style="edgeStyle=orthogonalEdgeStyle;rounded=0;orthogonalLoop=1;jettySize=auto;html=1;" edge="1" parent="MCzjkDJWGuXhaZzOaiWx-1" source="MCzjkDJWGuXhaZzOaiWx-38">
          <mxGeometry relative="1" as="geometry">
            <mxPoint x="120" y="360" as="targetPoint" />
          </mxGeometry>
        </mxCell>
        <mxCell id="MCzjkDJWGuXhaZzOaiWx-38" value="ID_Seccion" style="ellipse;whiteSpace=wrap;html=1;align=center;" vertex="1" parent="MCzjkDJWGuXhaZzOaiWx-1">
          <mxGeometry x="70" y="300" width="100" height="40" as="geometry" />
        </mxCell>
        <mxCell id="MCzjkDJWGuXhaZzOaiWx-39" style="edgeStyle=orthogonalEdgeStyle;rounded=0;orthogonalLoop=1;jettySize=auto;html=1;" edge="1" parent="MCzjkDJWGuXhaZzOaiWx-1" source="MCzjkDJWGuXhaZzOaiWx-40">
          <mxGeometry relative="1" as="geometry">
            <mxPoint x="370" y="320" as="targetPoint" />
          </mxGeometry>
        </mxCell>
        <mxCell id="MCzjkDJWGuXhaZzOaiWx-40" value="Descripción" style="ellipse;whiteSpace=wrap;html=1;align=center;" vertex="1" parent="MCzjkDJWGuXhaZzOaiWx-1">
          <mxGeometry x="325" y="270" width="90" height="30" as="geometry" />
        </mxCell>
        <mxCell id="MCzjkDJWGuXhaZzOaiWx-41" style="edgeStyle=orthogonalEdgeStyle;rounded=0;orthogonalLoop=1;jettySize=auto;html=1;" edge="1" parent="MCzjkDJWGuXhaZzOaiWx-1" source="MCzjkDJWGuXhaZzOaiWx-42">
          <mxGeometry relative="1" as="geometry">
            <mxPoint x="370" y="380" as="targetPoint" />
          </mxGeometry>
        </mxCell>
        <mxCell id="MCzjkDJWGuXhaZzOaiWx-42" value="Precio" style="ellipse;whiteSpace=wrap;html=1;align=center;" vertex="1" parent="MCzjkDJWGuXhaZzOaiWx-1">
          <mxGeometry x="320" y="320" width="100" height="40" as="geometry" />
        </mxCell>
        <mxCell id="MCzjkDJWGuXhaZzOaiWx-44" value="Stock" style="ellipse;whiteSpace=wrap;html=1;align=center;" vertex="1" parent="MCzjkDJWGuXhaZzOaiWx-1">
          <mxGeometry x="320" y="380" width="100" height="40" as="geometry" />
        </mxCell>
        <mxCell id="MCzjkDJWGuXhaZzOaiWx-46" style="edgeStyle=orthogonalEdgeStyle;rounded=0;orthogonalLoop=1;jettySize=auto;html=1;" edge="1" parent="MCzjkDJWGuXhaZzOaiWx-1" source="MCzjkDJWGuXhaZzOaiWx-47">
          <mxGeometry relative="1" as="geometry">
            <mxPoint x="610" y="40" as="targetPoint" />
          </mxGeometry>
        </mxCell>
        <mxCell id="MCzjkDJWGuXhaZzOaiWx-47" value="NIF_Cliente" style="ellipse;whiteSpace=wrap;html=1;align=center;" vertex="1" parent="MCzjkDJWGuXhaZzOaiWx-1">
          <mxGeometry x="560" y="60" width="100" height="40" as="geometry" />
        </mxCell>
        <mxCell id="MCzjkDJWGuXhaZzOaiWx-48" style="edgeStyle=orthogonalEdgeStyle;rounded=0;orthogonalLoop=1;jettySize=auto;html=1;" edge="1" parent="MCzjkDJWGuXhaZzOaiWx-1" source="MCzjkDJWGuXhaZzOaiWx-49">
          <mxGeometry relative="1" as="geometry">
            <mxPoint x="610" y="100" as="targetPoint" />
          </mxGeometry>
        </mxCell>
        <mxCell id="MCzjkDJWGuXhaZzOaiWx-49" value="ID_Venta" style="ellipse;whiteSpace=wrap;html=1;align=center;fontStyle=4;" vertex="1" parent="MCzjkDJWGuXhaZzOaiWx-1">
          <mxGeometry x="560" y="120" width="100" height="30" as="geometry" />
        </mxCell>
        <mxCell id="MCzjkDJWGuXhaZzOaiWx-50" style="edgeStyle=orthogonalEdgeStyle;rounded=0;orthogonalLoop=1;jettySize=auto;html=1;" edge="1" parent="MCzjkDJWGuXhaZzOaiWx-1" source="MCzjkDJWGuXhaZzOaiWx-51">
          <mxGeometry relative="1" as="geometry">
            <mxPoint x="610" y="-20" as="targetPoint" />
          </mxGeometry>
        </mxCell>
        <mxCell id="MCzjkDJWGuXhaZzOaiWx-51" value="NIF_Empleado" style="ellipse;whiteSpace=wrap;html=1;align=center;" vertex="1" parent="MCzjkDJWGuXhaZzOaiWx-1">
          <mxGeometry x="560" width="100" height="40" as="geometry" />
        </mxCell>
        <mxCell id="MCzjkDJWGuXhaZzOaiWx-53" value="Fecha" style="ellipse;whiteSpace=wrap;html=1;align=center;" vertex="1" parent="MCzjkDJWGuXhaZzOaiWx-1">
          <mxGeometry x="560" y="-60" width="100" height="40" as="geometry" />
        </mxCell>
        <mxCell id="ZtLOuPHvxNb80hMJllQL-16" style="edgeStyle=orthogonalEdgeStyle;rounded=0;orthogonalLoop=1;jettySize=auto;html=1;" edge="1" parent="MCzjkDJWGuXhaZzOaiWx-1" source="MCzjkDJWGuXhaZzOaiWx-55">
          <mxGeometry relative="1" as="geometry">
            <mxPoint x="370" y="-10" as="targetPoint" />
          </mxGeometry>
        </mxCell>
        <mxCell id="MCzjkDJWGuXhaZzOaiWx-55" value="ID_Sección" style="ellipse;whiteSpace=wrap;html=1;align=center;fontStyle=4;" vertex="1" parent="MCzjkDJWGuXhaZzOaiWx-1">
          <mxGeometry x="320" y="10" width="100" height="40" as="geometry" />
        </mxCell>
        <mxCell id="MCzjkDJWGuXhaZzOaiWx-58" value="Nombre" style="ellipse;whiteSpace=wrap;html=1;align=center;" vertex="1" parent="MCzjkDJWGuXhaZzOaiWx-1">
          <mxGeometry x="320" y="-50" width="100" height="40" as="geometry" />
        </mxCell>
        <mxCell id="MCzjkDJWGuXhaZzOaiWx-59" style="edgeStyle=orthogonalEdgeStyle;rounded=0;orthogonalLoop=1;jettySize=auto;html=1;" edge="1" parent="MCzjkDJWGuXhaZzOaiWx-1" source="MCzjkDJWGuXhaZzOaiWx-60">
          <mxGeometry relative="1" as="geometry">
            <mxPoint x="610" y="470" as="targetPoint" />
          </mxGeometry>
        </mxCell>
        <mxCell id="MCzjkDJWGuXhaZzOaiWx-60" value="Descripción" style="ellipse;whiteSpace=wrap;html=1;align=center;" vertex="1" parent="MCzjkDJWGuXhaZzOaiWx-1">
          <mxGeometry x="560" y="410" width="100" height="40" as="geometry" />
        </mxCell>
        <mxCell id="MCzjkDJWGuXhaZzOaiWx-61" style="edgeStyle=orthogonalEdgeStyle;rounded=0;orthogonalLoop=1;jettySize=auto;html=1;entryX=0.5;entryY=0;entryDx=0;entryDy=0;" edge="1" parent="MCzjkDJWGuXhaZzOaiWx-1" source="MCzjkDJWGuXhaZzOaiWx-62" target="MCzjkDJWGuXhaZzOaiWx-64">
          <mxGeometry relative="1" as="geometry" />
        </mxCell>
        <mxCell id="MCzjkDJWGuXhaZzOaiWx-62" value="Precio" style="ellipse;whiteSpace=wrap;html=1;align=center;" vertex="1" parent="MCzjkDJWGuXhaZzOaiWx-1">
          <mxGeometry x="560" y="470" width="100" height="30" as="geometry" />
        </mxCell>
        <mxCell id="MCzjkDJWGuXhaZzOaiWx-64" value="Stock" style="ellipse;whiteSpace=wrap;html=1;align=center;" vertex="1" parent="MCzjkDJWGuXhaZzOaiWx-1">
          <mxGeometry x="560" y="530" width="100" height="40" as="geometry" />
        </mxCell>
        <mxCell id="ZtLOuPHvxNb80hMJllQL-20" style="edgeStyle=orthogonalEdgeStyle;rounded=0;orthogonalLoop=1;jettySize=auto;html=1;" edge="1" parent="MCzjkDJWGuXhaZzOaiWx-1" source="ZtLOuPHvxNb80hMJllQL-1">
          <mxGeometry relative="1" as="geometry">
            <mxPoint x="777" y="140" as="targetPoint" />
          </mxGeometry>
        </mxCell>
        <mxCell id="ZtLOuPHvxNb80hMJllQL-1" value="Detalle_venta" style="whiteSpace=wrap;html=1;align=center;" vertex="1" parent="MCzjkDJWGuXhaZzOaiWx-1">
          <mxGeometry x="727" y="170" width="100" height="40" as="geometry" />
        </mxCell>
        <mxCell id="ZtLOuPHvxNb80hMJllQL-7" style="edgeStyle=orthogonalEdgeStyle;rounded=0;orthogonalLoop=1;jettySize=auto;html=1;" edge="1" parent="MCzjkDJWGuXhaZzOaiWx-1" source="ZtLOuPHvxNb80hMJllQL-2">
          <mxGeometry relative="1" as="geometry">
            <mxPoint x="120" y="-200" as="targetPoint" />
          </mxGeometry>
        </mxCell>
        <mxCell id="ZtLOuPHvxNb80hMJllQL-2" value="Domicilio" style="ellipse;whiteSpace=wrap;html=1;align=center;" vertex="1" parent="MCzjkDJWGuXhaZzOaiWx-1">
          <mxGeometry x="70" y="-180" width="100" height="40" as="geometry" />
        </mxCell>
        <mxCell id="ZtLOuPHvxNb80hMJllQL-10" value="" style="edgeStyle=orthogonalEdgeStyle;rounded=0;orthogonalLoop=1;jettySize=auto;html=1;" edge="1" parent="MCzjkDJWGuXhaZzOaiWx-1" source="ZtLOuPHvxNb80hMJllQL-3" target="ZtLOuPHvxNb80hMJllQL-5">
          <mxGeometry relative="1" as="geometry" />
        </mxCell>
        <mxCell id="ZtLOuPHvxNb80hMJllQL-11" value="" style="edgeStyle=orthogonalEdgeStyle;rounded=0;orthogonalLoop=1;jettySize=auto;html=1;" edge="1" parent="MCzjkDJWGuXhaZzOaiWx-1" source="ZtLOuPHvxNb80hMJllQL-3" target="ZtLOuPHvxNb80hMJllQL-5">
          <mxGeometry relative="1" as="geometry" />
        </mxCell>
        <mxCell id="ZtLOuPHvxNb80hMJllQL-3" value="Localidad" style="ellipse;whiteSpace=wrap;html=1;align=center;" vertex="1" parent="MCzjkDJWGuXhaZzOaiWx-1">
          <mxGeometry x="75" y="-300" width="90" height="40" as="geometry" />
        </mxCell>
        <mxCell id="ZtLOuPHvxNb80hMJllQL-8" style="edgeStyle=orthogonalEdgeStyle;rounded=0;orthogonalLoop=1;jettySize=auto;html=1;" edge="1" parent="MCzjkDJWGuXhaZzOaiWx-1" source="ZtLOuPHvxNb80hMJllQL-4">
          <mxGeometry relative="1" as="geometry">
            <mxPoint x="120" y="-260" as="targetPoint" />
          </mxGeometry>
        </mxCell>
        <mxCell id="ZtLOuPHvxNb80hMJllQL-4" value="Provincia&lt;span style=&quot;color: rgba(0, 0, 0, 0); font-family: monospace; font-size: 0px; text-align: start; text-wrap: nowrap;&quot;&gt;%3CmxGraphModel%3E%3Croot%3E%3CmxCell%20id%3D%220%22%2F%3E%3CmxCell%20id%3D%221%22%20parent%3D%220%22%2F%3E%3CmxCell%20id%3D%222%22%20value%3D%22Localidad%22%20style%3D%22ellipse%3BwhiteSpace%3Dwrap%3Bhtml%3D1%3Balign%3Dcenter%3B%22%20vertex%3D%221%22%20parent%3D%221%22%3E%3CmxGeometry%20x%3D%2270%22%20y%3D%22-220%22%20width%3D%22100%22%20height%3D%2240%22%20as%3D%22geometry%22%2F%3E%3C%2FmxCell%3E%3C%2Froot%3E%3C%2FmxGraphModel%3E&lt;/span&gt;" style="ellipse;whiteSpace=wrap;html=1;align=center;" vertex="1" parent="MCzjkDJWGuXhaZzOaiWx-1">
          <mxGeometry x="70" y="-240" width="100" height="40" as="geometry" />
        </mxCell>
        <mxCell id="ZtLOuPHvxNb80hMJllQL-5" value="Teléfono" style="ellipse;whiteSpace=wrap;html=1;align=center;" vertex="1" parent="MCzjkDJWGuXhaZzOaiWx-1">
          <mxGeometry x="70" y="-360" width="100" height="40" as="geometry" />
        </mxCell>
        <mxCell id="ZtLOuPHvxNb80hMJllQL-17" value="Relationship" style="shape=rhombus;perimeter=rhombusPerimeter;whiteSpace=wrap;html=1;align=center;" vertex="1" parent="MCzjkDJWGuXhaZzOaiWx-1">
          <mxGeometry x="313.5" y="120" width="108" height="40" as="geometry" />
        </mxCell>
        <mxCell id="ZtLOuPHvxNb80hMJllQL-18" value="Relationship" style="shape=rhombus;perimeter=rhombusPerimeter;whiteSpace=wrap;html=1;align=center;" vertex="1" parent="MCzjkDJWGuXhaZzOaiWx-1">
          <mxGeometry x="550" y="230" width="120" height="60" as="geometry" />
        </mxCell>
        <mxCell id="ZtLOuPHvxNb80hMJllQL-21" value="Relationship" style="shape=rhombus;perimeter=rhombusPerimeter;whiteSpace=wrap;html=1;align=center;" vertex="1" parent="MCzjkDJWGuXhaZzOaiWx-1">
          <mxGeometry x="677" y="175" width="50" height="30" as="geometry" />
        </mxCell>
      </root>
    </mxGraphModel>
  </diagram>
</mxfile>
